<svg width="45" height="45" viewBox="0 0 45 45" fill="none" xmlns="http://www.w3.org/2000/svg">
<rect width="45" height="45" fill="#1E1E1E"/>
<g clip-path="url(#clip0_0_1)">
<rect width="1440" height="4542" transform="translate(-134 -2710)" fill="white"/>
<g filter="url(#filter0_dd_0_1)">
<rect x="-23" y="-18" width="600" height="86" rx="16" fill="white"/>
</g>
<circle cx="22.5" cy="22.5" r="22.5" fill="#FB9C46"/>
<path d="M26.91 11.4167C27.423 11.4155 27.8286 11.814 27.8298 12.3454L27.831 13.2512C31.1595 13.5121 33.3583 15.7802 33.3619 19.2584L33.375 29.4396C33.3798 33.2319 30.9973 35.5652 27.1784 35.5712L17.8502 35.5833C14.0552 35.5881 11.6429 33.1993 11.6381 29.3961L11.625 19.3345C11.6202 15.8333 13.7414 13.5712 17.07 13.2657L17.0688 12.3599C17.0676 11.8285 17.4613 11.4287 17.9862 11.4287C18.5111 11.4275 18.9048 11.8261 18.906 12.3575L18.9072 13.2029L25.9938 13.1932L25.9926 12.3478C25.9914 11.8164 26.3851 11.4179 26.91 11.4167ZM27.3968 28.5652H27.3848C26.836 28.5785 26.3958 29.0386 26.4077 29.5942C26.4089 30.1497 26.8515 30.6075 27.4003 30.6195C27.9599 30.6183 28.4132 30.1582 28.412 29.5906C28.412 29.0229 27.9575 28.5652 27.3968 28.5652ZM17.5663 28.5664C17.0175 28.5906 16.588 29.0507 16.5892 29.6063C16.6142 30.1618 17.0676 30.5966 17.6164 30.5712C18.1544 30.5471 18.5827 30.0869 18.5577 29.5314C18.5457 28.9879 18.1031 28.5652 17.5663 28.5664ZM22.4815 28.5604C21.9327 28.5857 21.5044 29.0447 21.5044 29.6002C21.5295 30.1558 21.9828 30.5894 22.5316 30.5652C23.0685 30.5398 23.498 30.0809 23.4729 29.5241C23.461 28.9819 23.0184 28.5592 22.4815 28.5604ZM17.5603 24.2186C17.0115 24.2427 16.5832 24.7029 16.5844 25.2584C16.6083 25.814 17.0628 26.2488 17.6116 26.2234C18.1485 26.1993 18.5768 25.7391 18.5517 25.1836C18.5398 24.6401 18.0983 24.2174 17.5603 24.2186ZM22.4767 24.1763C21.9279 24.2005 21.4985 24.6606 21.4997 25.2162C21.5235 25.7717 21.9781 26.2053 22.5268 26.1811C23.0637 26.1558 23.492 25.6968 23.4681 25.1413C23.455 24.5978 23.0136 24.1751 22.4767 24.1763ZM27.392 24.1824C26.8432 24.1944 26.4137 24.6413 26.4149 25.1968V25.2101C26.4268 25.7657 26.8802 26.1872 27.4302 26.1751C27.967 26.1618 28.3953 25.7017 28.3834 25.1461C28.3583 24.6147 27.9277 24.1811 27.392 24.1824ZM25.9962 15.0531L18.9096 15.0628L18.9108 16.0398C18.9108 16.5604 18.5183 16.971 17.9934 16.971C17.4684 16.9722 17.0735 16.5628 17.0735 16.0423L17.0724 15.1123C14.746 15.3454 13.4587 16.7126 13.4623 19.3321L13.4635 19.7077L31.5258 19.6836V19.2609C31.4745 16.6642 30.1717 15.3019 27.8334 15.099L27.8346 16.029C27.8346 16.5483 27.4302 16.9601 26.9172 16.9601C26.3922 16.9613 25.9973 16.5507 25.9973 16.0314L25.9962 15.0531Z" fill="white"/>
<g filter="url(#filter1_dd_0_1)">
<rect x="-23" y="-124" width="600" height="86" rx="16" fill="white"/>
</g>
<g filter="url(#filter2_dd_0_1)">
<rect x="-23" y="88" width="600" height="86" rx="16" fill="white"/>
</g>
</g>
<defs>
<filter id="filter0_dd_0_1" x="-380" y="-371" width="1314" height="800" filterUnits="userSpaceOnUse" color-interpolation-filters="sRGB">
<feFlood flood-opacity="0" result="BackgroundImageFix"/>
<feColorMatrix in="SourceAlpha" type="matrix" values="0 0 0 0 0 0 0 0 0 0 0 0 0 0 0 0 0 0 127 0" result="hardAlpha"/>
<feOffset dy="0.500862"/>
<feGaussianBlur stdDeviation="22.351"/>
<feColorMatrix type="matrix" values="0 0 0 0 1 0 0 0 0 0.572549 0 0 0 0 0.184314 0 0 0 0.075 0"/>
<feBlend mode="normal" in2="BackgroundImageFix" result="effect1_dropShadow_0_1"/>
<feColorMatrix in="SourceAlpha" type="matrix" values="0 0 0 0 0 0 0 0 0 0 0 0 0 0 0 0 0 0 127 0" result="hardAlpha"/>
<feOffset dy="4"/>
<feGaussianBlur stdDeviation="178.5"/>
<feColorMatrix type="matrix" values="0 0 0 0 1 0 0 0 0 0.572549 0 0 0 0 0.184314 0 0 0 0.15 0"/>
<feBlend mode="normal" in2="effect1_dropShadow_0_1" result="effect2_dropShadow_0_1"/>
<feBlend mode="normal" in="SourceGraphic" in2="effect2_dropShadow_0_1" result="shape"/>
</filter>
<filter id="filter1_dd_0_1" x="-380" y="-477" width="1314" height="800" filterUnits="userSpaceOnUse" color-interpolation-filters="sRGB">
<feFlood flood-opacity="0" result="BackgroundImageFix"/>
<feColorMatrix in="SourceAlpha" type="matrix" values="0 0 0 0 0 0 0 0 0 0 0 0 0 0 0 0 0 0 127 0" result="hardAlpha"/>
<feOffset dy="0.500862"/>
<feGaussianBlur stdDeviation="22.351"/>
<feColorMatrix type="matrix" values="0 0 0 0 1 0 0 0 0 0.572549 0 0 0 0 0.184314 0 0 0 0.075 0"/>
<feBlend mode="normal" in2="BackgroundImageFix" result="effect1_dropShadow_0_1"/>
<feColorMatrix in="SourceAlpha" type="matrix" values="0 0 0 0 0 0 0 0 0 0 0 0 0 0 0 0 0 0 127 0" result="hardAlpha"/>
<feOffset dy="4"/>
<feGaussianBlur stdDeviation="178.5"/>
<feColorMatrix type="matrix" values="0 0 0 0 1 0 0 0 0 0.572549 0 0 0 0 0.184314 0 0 0 0.15 0"/>
<feBlend mode="normal" in2="effect1_dropShadow_0_1" result="effect2_dropShadow_0_1"/>
<feBlend mode="normal" in="SourceGraphic" in2="effect2_dropShadow_0_1" result="shape"/>
</filter>
<filter id="filter2_dd_0_1" x="-380" y="-265" width="1314" height="800" filterUnits="userSpaceOnUse" color-interpolation-filters="sRGB">
<feFlood flood-opacity="0" result="BackgroundImageFix"/>
<feColorMatrix in="SourceAlpha" type="matrix" values="0 0 0 0 0 0 0 0 0 0 0 0 0 0 0 0 0 0 127 0" result="hardAlpha"/>
<feOffset dy="0.500862"/>
<feGaussianBlur stdDeviation="22.351"/>
<feColorMatrix type="matrix" values="0 0 0 0 1 0 0 0 0 0.572549 0 0 0 0 0.184314 0 0 0 0.075 0"/>
<feBlend mode="normal" in2="BackgroundImageFix" result="effect1_dropShadow_0_1"/>
<feColorMatrix in="SourceAlpha" type="matrix" values="0 0 0 0 0 0 0 0 0 0 0 0 0 0 0 0 0 0 127 0" result="hardAlpha"/>
<feOffset dy="4"/>
<feGaussianBlur stdDeviation="178.5"/>
<feColorMatrix type="matrix" values="0 0 0 0 1 0 0 0 0 0.572549 0 0 0 0 0.184314 0 0 0 0.15 0"/>
<feBlend mode="normal" in2="effect1_dropShadow_0_1" result="effect2_dropShadow_0_1"/>
<feBlend mode="normal" in="SourceGraphic" in2="effect2_dropShadow_0_1" result="shape"/>
</filter>
<clipPath id="clip0_0_1">
<rect width="1440" height="4542" fill="white" transform="translate(-134 -2710)"/>
</clipPath>
</defs>
</svg>
